# xmcd
#
# Track frame offsets:
#	150
#	18704
#	39364
#	61721
#	82991
#	102011
#	124486
#	142290
#	161616
#	179472
#	198464
#	213060
#	235302
#	239589
#	259647
#	277409
#	301312
#	303432
#
# Disc length: 4091 seconds
#
# Revision: 0
# Processed by: cddbd v1.5.2PL0 Copyright (c) Steve Scherf et al.
# Submitted via: dBpowerAMP V4.0
#
DISCID=050ff912
DTITLE=Brad Paisley - 5th Gear
DYEAR=2007
DGENRE=Country
TTITLE0=All I Wanted Was A Car
TTITLE1=Ticks
TTITLE2=Online
TTITLE3=Letter To Me
TTITLE4=I'm Still A Guy
TTITLE5=Some Mistakes
TTITLE6=It Did
TTITLE7=Mr. Policeman
TTITLE8=If Love Was A Plane
TTITLE9=Oh Love (ft. Carrie Underwood)
TTITLE10=Better Than This
TTITLE11=With You, Without You
TTITLE12=Previously...
TTITLE13=Bigger Fish To Fry
TTITLE14=When We All Get To Heaven
TTITLE15=Throttleneck
TTITLE16=(Hidden Track 1)
TTITLE17=(Hidden Track 2)
EXTD=
EXTT0=
EXTT1=
EXTT2=
EXTT3=
EXTT4=
EXTT5=
EXTT6=
EXTT7=
EXTT8=
EXTT9=
EXTT10=
EXTT11=
EXTT12=
EXTT13=
EXTT14=
EXTT15=
EXTT16=
EXTT17=
PLAYORDER=
